<svg xmlns="http://www.w3.org/2000/svg" width="296" height="231" viewBox="0 0 296 231"><g><g><path fill="#aab6c1" d="M19.81 25.939a4.357 4.357 0 0 1-1.274-3.068c0-1.14.464-2.264 1.274-3.069a4.362 4.362 0 0 1 3.07-1.273 4.346 4.346 0 0 1 4.345 4.342c0 1.14-.463 2.263-1.274 3.068a4.361 4.361 0 0 1-3.07 1.274 4.351 4.351 0 0 1-3.07-1.274zm13.903 0a4.357 4.357 0 0 1-1.275-3.068c0-1.14.464-2.264 1.275-3.069a4.362 4.362 0 0 1 3.07-1.273c1.14 0 2.265.463 3.07 1.273a4.356 4.356 0 0 1 1.274 3.069c0 1.14-.463 2.263-1.274 3.068a4.361 4.361 0 0 1-3.07 1.274 4.362 4.362 0 0 1-3.07-1.274zm13.902 0a4.356 4.356 0 0 1-1.275-3.068c0-1.14.464-2.264 1.275-3.069a4.362 4.362 0 0 1 3.07-1.273c1.141 0 2.265.463 3.07 1.273a4.357 4.357 0 0 1 1.274 3.069c0 1.14-.463 2.263-1.274 3.068a4.361 4.361 0 0 1-3.07 1.274 4.362 4.362 0 0 1-3.07-1.274zm17.262-3.068a4.343 4.343 0 0 1 4.344-4.342h176.094a4.343 4.343 0 1 1 0 8.684H69.22a4.343 4.343 0 0 1-4.344-4.342zm194.63 0a4.343 4.343 0 0 1 4.344-4.342h9.268c2.4 0 4.345 1.944 4.345 4.342a4.343 4.343 0 0 1-4.345 4.342h-9.268a4.343 4.343 0 0 1-4.344-4.342zm36.493 0v185.258c0 12.61-10.265 22.868-22.88 22.868H22.88C10.264 230.997 0 220.738 0 208.13V22.871C0 10.26 10.264.003 22.88.003h250.24C285.734.003 296 10.262 296 22.87zm-287.311 0v14.184H287.31V22.87c0-7.821-6.366-14.184-14.192-14.184H22.88C15.055 8.687 8.69 15.05 8.69 22.87zM287.31 208.129V45.74H8.69v162.39c0 7.821 6.366 14.184 14.191 14.184h250.24c7.825 0 14.191-6.363 14.191-14.184z"/></g><g><path fill="#d71921" d="M170.88 115.5v27.789c0 10.055-8.185 18.236-18.246 18.236h-9.268c-10.061 0-18.247-8.18-18.247-18.236v-27.79c0-10.055 8.186-18.235 18.247-18.235h9.268c10.06 0 18.247 8.18 18.247 18.236zm-8.688 0c0-5.267-4.288-9.552-9.558-9.552h-9.268c-5.27 0-9.558 4.285-9.558 9.552v27.789c0 5.267 4.288 9.552 9.558 9.552h9.268c5.27 0 9.558-4.285 9.558-9.552zm-42.286 27.789a4.343 4.343 0 0 1-4.344 4.342h-4.924v9.552a4.343 4.343 0 0 1-4.345 4.342 4.343 4.343 0 0 1-4.344-4.342v-9.552H73.855a4.345 4.345 0 0 1-4.122-5.715l13.902-41.684a4.345 4.345 0 0 1 8.244 2.747l-11.996 35.968h22.066v-37.341a4.343 4.343 0 0 1 4.344-4.342c2.4 0 4.345 1.944 4.345 4.342v37.34h4.924c2.399 0 4.344 1.945 4.344 4.343zm106.583 0a4.343 4.343 0 0 1-4.344 4.342h-4.924v9.552a4.343 4.343 0 0 1-4.344 4.342 4.344 4.344 0 0 1-4.345-4.342v-9.552h-28.094a4.345 4.345 0 0 1-4.122-5.715l13.903-41.684a4.344 4.344 0 0 1 8.243 2.747l-11.996 35.968h22.066v-37.341a4.344 4.344 0 0 1 4.345-4.342c2.399 0 4.344 1.944 4.344 4.342v37.34h4.924a4.343 4.343 0 0 1 4.344 4.343z"/></g></g></svg>