<svg xmlns="http://www.w3.org/2000/svg" width="31" height="26" viewBox="0 0 31 26"><g><g><path fill="#c1c1c1" d="M31 13.83v10.665c0 .239-.12.462-.316.59a.657.657 0 0 1-.651.034L25.57 22.86a.706.706 0 0 1-.309-.93.662.662 0 0 1 .9-.319l3.494 1.769v-8.436l-3.495 1.769a.662.662 0 0 1-.899-.32.706.706 0 0 1 .309-.93l4.462-2.258a.653.653 0 0 1 .65.035c.197.127.317.35.317.59zM10.01 8.897c0 1.257-.988 2.28-2.203 2.28-1.215 0-2.203-1.023-2.203-2.28s.988-2.28 2.203-2.28c1.215 0 2.203 1.023 2.203 2.28zm-1.21 0c0-.567-.445-1.029-.993-1.029s-.994.462-.994 1.029.446 1.028.994 1.028.994-.461.994-1.028zm15.522 4.457V24.97c0 .384-.3.696-.672.696H3.538a.684.684 0 0 1-.672-.696V21.38H.897a.684.684 0 0 1-.672-.695V17.64c0-.384.301-.695.672-.695h1.97v-3.591c0-.384.3-.696.671-.696h.87a5.222 5.222 0 0 1-1.58-3.761c0-2.842 2.233-5.152 4.979-5.152 1.597 0 3.02.783 3.932 1.996.645-3.088 3.305-5.409 6.479-5.409 3.655 0 6.628 3.077 6.628 6.859a6.932 6.932 0 0 1-2.633 5.467h1.437c.371 0 .672.312.672.696zM2.866 18.336H1.57v1.652h1.297zM12.933 7.19c0 3.015 2.371 5.467 5.285 5.467s5.284-2.452 5.284-5.467c0-3.015-2.37-5.468-5.284-5.468-2.914 0-5.285 2.453-5.285 5.468zm-1.728 5.467h3.016a6.833 6.833 0 0 1-1.73-2.016 5.184 5.184 0 0 1-1.286 2.016zm-3.398 0c2.005 0 3.636-1.687 3.636-3.761S9.812 5.135 7.807 5.135 4.171 6.823 4.171 8.897s1.631 3.761 3.636 3.761zm15.171 11.617V14.05H4.21v10.226zM21.404 7.191c0 1.818-1.43 3.297-3.186 3.297-1.757 0-3.187-1.48-3.187-3.297 0-1.819 1.43-3.298 3.187-3.298s3.186 1.48 3.186 3.298zm-1.343 0c0-1.052-.827-1.907-1.843-1.907s-1.843.855-1.843 1.907c0 1.051.827 1.906 1.843 1.906s1.843-.855 1.843-1.906zm-3.651 9.922v4.098c0 .346-.271.626-.605.626H7.674a.615.615 0 0 1-.605-.626v-4.098c0-.345.27-.626.605-.626h8.131c.334 0 .605.28.605.626zm-1.21.626H8.278v2.847H15.2zm4.528-.626c.413 0 .748.347.748.774a.761.761 0 0 1-.748.774.761.761 0 0 1-.748-.774c0-.427.335-.774.748-.774zm0 2.551a.76.76 0 0 1 .748.774.761.761 0 0 1-.748.773.761.761 0 0 1-.748-.773.76.76 0 0 1 .748-.774z"/></g></g></svg>