<svg xmlns="http://www.w3.org/2000/svg" width="22" height="22" viewBox="0 0 22 22"><g><g><path fill="#d71921" d="M2.75 3.437V.687a.687.687 0 1 1 1.374 0v2.75a.687.687 0 1 1-1.375 0zm11 0V.687a.687.687 0 1 1 1.374 0v2.75a.687.687 0 1 1-1.375 0zM22 16.499a5.5 5.5 0 1 1-11.001 0 5.5 5.5 0 0 1 11 0zm-1.376 0a4.13 4.13 0 0 0-4.125-4.125 4.13 4.13 0 0 0-4.125 4.125 4.13 4.13 0 0 0 4.125 4.125 4.13 4.13 0 0 0 4.125-4.125zM5.5 11H2.75v-2.75H5.5zm-2.75 1.375H5.5v2.75H2.75zm4.125-4.125h2.75V11h-2.75zm0 4.125h2.75v2.75h-2.75zM1.49 16.499h8.135v1.375H1.49c-.823 0-1.49-.68-1.49-1.512V4.261a1.5 1.5 0 0 1 1.49-1.512h.573v.688c0 .757.616 1.375 1.375 1.375s1.375-.618 1.375-1.375v-.688h8.25v.688c0 .757.616 1.375 1.375 1.375s1.375-.618 1.375-1.375v-.688h.573a1.5 1.5 0 0 1 1.49 1.512v5.363h-1.376v-2.75H1.374v9.488c0 .073.053.137.115.137zM11 11v-2.75h2.75V11zm8.25 6.187c0 .38-.307.688-.687.688h-2.75a.688.688 0 0 1-.688-.688v-2.75a.687.687 0 1 1 1.375 0V16.5h2.063c.38 0 .687.308.687.687z"/></g></g></svg>