<svg xmlns="http://www.w3.org/2000/svg" width="26" height="26" viewBox="0 0 26 26"><g><g><path d="M26 .572c-.006.028-.006.057-.011.092v.035l-4.53 21.38a.557.557 0 0 1-.813.387l-6.067-3.268-3.925 6.525a.554.554 0 0 1-.48.277.573.573 0 0 1-.565-.577v-8.875L.323 12.085a.58.58 0 0 1-.277-.295.583.583 0 0 1 .294-.762L25.204.04c.017-.005.04-.005.056-.011a.659.659 0 0 1 .113-.03h.085c.034 0 .068.007.101.012.029.006.057.018.085.03.023.005.045.017.062.022.012.006.017.018.029.023l.067.052a.534.534 0 0 1 .08.081c.01.012.022.018.028.03.005.01.01.028.017.04a.49.49 0 0 1 .067.179C26 .502 26 .537 26 .572zm-3.061 1.743l-20.99 9.262 8.112 3.903zm-9.36 16.346l-2.84-1.53v6.242zM24.47 2.38L11.122 16.034l3.056 1.646.04-.07.96.607 5.338 2.87z"/></g></g></svg>