<svg xmlns="http://www.w3.org/2000/svg" width="12" height="22" viewBox="0 0 12 22"><g><g><path fill="#fff" d="M11.289.842L8.647.838c-2.969 0-4.887 2.02-4.887 5.146v2.373H1.103a.421.421 0 0 0-.415.427v3.437c0 .236.186.427.415.427H3.76v8.674c0 .236.186.427.415.427h3.466c.23 0 .416-.192.416-.427v-8.674h3.106c.23 0 .416-.191.416-.427V8.784a.434.434 0 0 0-.12-.302.41.41 0 0 0-.295-.125H8.057V6.346c0-.967.224-1.458 1.451-1.458h1.78a.42.42 0 0 0 .416-.427V1.268a.421.421 0 0 0-.415-.426z"/></g></g></svg>