<svg xmlns="http://www.w3.org/2000/svg" width="116" height="108" viewBox="0 0 116 108"><g><g><path fill="#dbe3e8" d="M62 60h48v48H62zm4 44h18V78.828l-8.586 8.586-2.828-2.828L86 71.172l13.414 13.414-2.828 2.828L88 78.828V104h18V64H66zM32 34.274c-6.142 0-11.138-4.996-11.138-11.136C20.862 16.996 25.858 12 32 12c6.142 0 11.138 4.996 11.138 11.138 0 6.142-4.996 11.136-11.138 11.136zm0-3.998c3.936 0 7.138-3.204 7.138-7.138C39.138 19.204 35.936 16 32 16s-7.138 3.204-7.138 7.138A7.146 7.146 0 0 0 32 30.276zM12.678 66.498L46.71 36.532a2.006 2.006 0 0 1 2.736.088l9.486 9.486L78.52 24.652a2.004 2.004 0 0 1 1.388-.65 1.952 1.952 0 0 1 1.44.524l24 22a2 2 0 1 1-2.702 2.95L80.124 28.83 61.762 48.938l3.65 3.648a1.998 1.998 0 0 1 0 2.828 1.998 1.998 0 0 1-2.828 0L47.946 40.778 15.32 69.502c-.38.334-.852.498-1.32.498a2 2 0 0 1-1.322-3.502zM116 2v48a2 2 0 1 1-4 0V4H4v84h46a2 2 0 1 1 0 4H2a2 2 0 0 1-2-2V2a2 2 0 0 1 2-2h112a2 2 0 0 1 2 2z"/></g></g></svg>