<svg xmlns="http://www.w3.org/2000/svg" width="20" height="28" viewBox="0 0 20 28"><g><g><path fill="#c1c1c1" d="M19.812 17.327l-3.363 10.048a.916.916 0 0 1-.869.624H2.75a.916.916 0 0 1-.892-.7L.427 21.336A15.488 15.488 0 0 1 0 17.727V6.39c0-1.51 1.233-2.739 2.75-2.739a2.747 2.747 0 0 1 2.749 2.74v1.678a2.732 2.732 0 0 1 1.93.037 2.752 2.752 0 0 1 3.569-1.863V2.738a2.747 2.747 0 0 1 2.749-2.739 2.747 2.747 0 0 1 2.75 2.739v8.918a4.564 4.564 0 0 1 3.16 2.387c.49.95.545 2.116.155 3.284zM12.83 2.738v8.826h1.833V2.738a.916.916 0 0 0-1.833 0zm-3.666 9.74c0 .251.103.48.268.645a2.76 2.76 0 0 1 1.565-1.402V8.825a.916.916 0 0 0-1.833 0v3.652zm-3.666 0a.916.916 0 0 0 1.833 0V10.65a.916.916 0 0 0-1.833 0zm12.528 2.4a2.743 2.743 0 0 0-2.447-1.488h-3.666a.916.916 0 0 0-.916.913c0 .504.41.913.916.913h3.65c1.088 0 1.27 1.46.29 1.785-3.198 1.028-4.856 3.687-4.856 6.433 0 .504-.41.913-.917.913a.915.915 0 0 1-.916-.913 8.487 8.487 0 0 1 2.898-6.391h-.149a2.753 2.753 0 0 1-2.63-1.945 2.746 2.746 0 0 1-1.036-.581 2.747 2.747 0 0 1-4.582-2.04V6.39a.916.916 0 0 0-1.833 0v11.337c0 1.072.127 2.143.377 3.185l1.262 5.261H14.92l3.154-9.424c.23-.687.213-1.369-.046-1.87z"/></g></g></svg>