<svg xmlns="http://www.w3.org/2000/svg" width="20" height="20" viewBox="0 0 20 20"><g><g><path fill="#aab6c1" d="M4.947 1.37C9.712-1.42 15.838.182 18.629 4.948c2.79 4.765 1.19 10.892-3.576 13.682-4.765 2.791-10.891 1.19-13.682-3.576C-1.42 10.287.18 4.162 4.947 1.371zm-1.85 12.672a8 8 0 1 0 13.806-8.085 8 8 0 0 0-13.807 8.085zM5.5 10.028a1 1 0 0 1 .994-1.006l4.171-.026-1.128-1.114a1 1 0 0 1 1.406-1.423l2.845 2.81a1 1 0 0 1 .009 1.415l-2.81 2.845a1 1 0 0 1-1.424-1.405l1.114-1.128-4.17.026a1 1 0 0 1-1.007-.994z"/></g></g></svg>