<svg xmlns="http://www.w3.org/2000/svg" width="19" height="19" viewBox="0 0 19 19"><g><g><path fill="#fff" d="M16.27.298c1.268 0 2.304.943 2.304 2.316v13.41c0 1.373-1.036 2.316-2.304 2.316H2.925c-1.267 0-2.304-.943-2.304-2.316V2.614C.621 1.241 1.658.298 2.925.298zm-3.378 2.817V5.06c0 .447.363.813.807.813h2.03a.813.813 0 0 0 .808-.813V3.115a.813.813 0 0 0-.808-.812h-2.03a.812.812 0 0 0-.807.812zm2.073 4.813c.15.49.23 1.01.23 1.548 0 3-2.498 5.433-5.58 5.433s-5.58-2.432-5.58-5.433c0-.538.08-1.057.23-1.548H2.616v7.621c0 .394.321.717.714.717h12.502a.718.718 0 0 0 .714-.717V7.928zm-5.35-2.159c-1.991 0-3.606 1.572-3.606 3.511 0 1.94 1.615 3.51 3.606 3.51 1.991 0 3.606-1.57 3.606-3.51 0-1.94-1.615-3.511-3.606-3.511z"/></g></g></svg>