<svg xmlns="http://www.w3.org/2000/svg" width="71" height="20" viewBox="0 0 71 20"><g><g><path fill="#050505" d="M25.244 5.152h1.64v8.328h4.408v1.453h-6.048zm8.602 8.328h4.838v1.453h-6.479v-9.78h6.48V6.59h-4.84zm.43-4.165h3.719v1.44h-3.718zm6.807 5.618h-1.64v-9.78h1.64zm.43-5.044l3.82-4.737h1.97L43.429 9.96l4.012 4.974h-2.109l-3.818-4.737zm13.01 1.565v1.341c0 1.285-.855 2.138-2.095 2.138h-3.101c-1.255 0-2.11-.853-2.11-2.138v-.866h1.64v.783c0 .488.29.768.759.768h2.508c.47 0 .759-.28.759-.768v-1.188c0-.476-.29-.769-.759-.769h-2.811c-1.24 0-2.096-.852-2.096-2.138V7.29c0-1.285.855-2.138 2.096-2.138h3.101c1.254 0 2.11.853 2.11 2.138v.866h-1.641v-.782c0-.49-.29-.783-.759-.783h-2.508c-.469 0-.758.294-.758.783v1.16c0 .487.29.781.758.781h2.812c1.24 0 2.095.853 2.095 2.139zm5.404-.112v3.591h-1.64v-3.591l-3.53-6.19h1.958l2.426 4.513zm-.355-2.113l2.023-4.077h1.847l-3.084 5.753zm11.425 2.225v1.341c0 1.285-.856 2.138-2.096 2.138H65.8c-1.255 0-2.11-.853-2.11-2.138v-.866h1.641v.783c0 .488.29.768.758.768h2.509c.468 0 .758-.28.758-.768v-1.188c0-.476-.29-.769-.758-.769h-2.812c-1.24 0-2.095-.852-2.095-2.138V7.29c0-1.285.854-2.138 2.095-2.138h3.101c1.254 0 2.11.853 2.11 2.138v.866h-1.641v-.782c0-.49-.29-.783-.758-.783h-2.509c-.469 0-.758.294-.758.783v1.16c0 .487.29.781.758.781h2.812c1.24 0 2.096.853 2.096 2.139zM10.955 8.929c-.42-.418-.641-.96-.641-1.538 0-.578.221-1.12.624-1.528a2.108 2.108 0 0 1 3.011-.006l5.168 5.24c.392.396.614.94.614 1.517s-.222 1.12-.625 1.53l-5.14 5.203a2.104 2.104 0 0 1-3.028.018 2.186 2.186 0 0 1 0-3.057l3.116-3.16a.755.755 0 0 0 .22-.535.756.756 0 0 0-.22-.535zm5.32-.104c.005.02.006.04.01.058.014.072.023.145.032.219.004.037.01.073.012.11.007.1.01.2.006.303v.034c-.098 2.428-2.969 4.931-3.09 5.035l-2.016 2.04a1.747 1.747 0 0 0 .01 2.437c.645.654 1.77.654 2.414 0l5.16-5.23c.315-.32.492-.755.492-1.217 0-.462-.177-.897-.5-1.224zm-1.92 2.95c.168.167.279.38.323.61l.004-.006.035-.05c.072-.097.142-.197.21-.297.028-.041.055-.085.082-.126.052-.08.103-.16.152-.241.03-.049.058-.099.086-.148a6.878 6.878 0 0 0 .209-.392 5.257 5.257 0 0 0 .314-.796c.026-.087.046-.175.065-.263.01-.046.022-.092.03-.138.022-.128.038-.256.043-.383l.002-.016v-.017a2.498 2.498 0 0 0-.03-.479c0-.009-.003-.017-.005-.025a2.01 2.01 0 0 0-.046-.21l-.005-.02c-.021-.07-.044-.14-.07-.208-.006-.015-.014-.028-.02-.042a2.196 2.196 0 0 0-.08-.177c-.009-.016-.02-.031-.028-.048-.031-.055-.062-.11-.097-.163l-.042-.056c-.034-.048-.068-.097-.107-.145l-.064-.072c-.036-.04-.07-.081-.11-.12l-1.564-1.59a1.684 1.684 0 0 0-1.196-.497c-.456 0-.885.18-1.207.508-.322.326-.5.76-.5 1.223 0 .462.178.896.5 1.223zM8.79 11.07c.419.418.64.961.64 1.538 0 .578-.221 1.12-.624 1.529a2.102 2.102 0 0 1-1.508.634c-.567 0-1.1-.224-1.503-.628L.627 8.904a2.148 2.148 0 0 1-.615-1.517c0-.578.222-1.12.625-1.53L5.777.654A2.101 2.101 0 0 1 8.805.635a2.186 2.186 0 0 1 0 3.058L5.69 6.85a.758.758 0 0 0-.22.536c0 .202.078.393.22.536zm-5.321.104c-.005-.018-.005-.039-.01-.059a2.68 2.68 0 0 1-.032-.217c-.004-.037-.009-.073-.011-.111-.008-.1-.01-.2-.007-.302v-.034c.098-2.429 2.969-4.931 3.091-5.036l2.015-2.039A1.747 1.747 0 0 0 8.504.94C7.86.286 6.734.286 6.09.94L.931 6.17c-.315.32-.493.754-.493 1.217 0 .462.178.897.5 1.224zm1.92-2.949a1.186 1.186 0 0 1-.322-.61l-.005.005-.035.05a8.29 8.29 0 0 0-.444.664c-.03.049-.058.1-.086.149a7.084 7.084 0 0 0-.208.392 4.851 4.851 0 0 0-.177.396 5.214 5.214 0 0 0-.138.4 3.505 3.505 0 0 0-.064.263c-.01.046-.023.092-.031.138a3.086 3.086 0 0 0-.043.383l-.002.016v.017a2.486 2.486 0 0 0 .081.714c.001.007.004.013.006.019.02.07.043.14.07.209l.019.042c.025.059.05.118.08.177l.029.047c.03.055.061.11.096.163.013.02.029.037.042.057.034.048.068.097.107.144.02.025.043.049.065.071.035.042.07.083.109.122l1.564 1.59c.321.32.745.496 1.196.496.456 0 .885-.18 1.207-.507.323-.326.5-.76.5-1.224 0-.461-.177-.896-.5-1.223z"/></g></g></svg>