<svg xmlns="http://www.w3.org/2000/svg" width="13" height="13" viewBox="0 0 13 13"><g><g><path fill="#fff" d="M13 12a.96.96 0 0 1-.297.702A.96.96 0 0 1 12 13a.927.927 0 0 1-.703-.298l-2.68-2.671A5.349 5.349 0 0 1 5.5 11a5.403 5.403 0 0 1-2.137-.434 5.5 5.5 0 0 1-1.758-1.172A5.501 5.501 0 0 1 .433 7.636 5.407 5.407 0 0 1-.001 5.5c0-.745.145-1.457.434-2.136.289-.68.68-1.267 1.172-1.759A5.5 5.5 0 0 1 3.363.432 5.408 5.408 0 0 1 5.5 0a5.41 5.41 0 0 1 2.137.433 5.5 5.5 0 0 1 1.758 1.172 5.497 5.497 0 0 1 1.171 1.759c.29.68.434 1.391.434 2.136a5.35 5.35 0 0 1-.969 3.118l2.68 2.68c.193.192.29.426.29.702zM9 5.5a3.37 3.37 0 0 0-1.027-2.474A3.371 3.371 0 0 0 5.5 2a3.37 3.37 0 0 0-2.473 1.027A3.371 3.371 0 0 0 1.999 5.5a3.37 3.37 0 0 0 1.028 2.473A3.37 3.37 0 0 0 5.5 9c.963 0 1.788-.343 2.473-1.028A3.37 3.37 0 0 0 9 5.499z"/></g></g></svg>