<svg xmlns="http://www.w3.org/2000/svg" width="17" height="17" viewBox="0 0 17 17"><g><g><path fill="#d71921" d="M10.701 7.498c-.02.272-.136.527-.328.72a1.162 1.162 0 0 1-1.593 0 1.7 1.7 0 0 0-2.402 0L2.76 11.833a1.7 1.7 0 1 0 2.405 2.405l2.14-2.142a.283.283 0 0 1 .308-.062 4.772 4.772 0 0 0 1.813.351h.114a.283.283 0 0 1 .2.485l-2.974 2.975a3.966 3.966 0 0 1-5.607-5.612l3.604-3.607a3.967 3.967 0 0 1 5.61 0c.23.23.349.548.328.872zm5.137-.728l-3.607 3.607a3.969 3.969 0 0 1-1.839 1.042h-.03l-.165.034-.09.017-.196.029h-.097c-.073 0-.138.014-.2.017l-.17.02h-.216a3.905 3.905 0 0 1-.422-.04 4.73 4.73 0 0 1-.343-.071l-.167-.045a2.247 2.247 0 0 1-.181-.06c-.06-.023-.122-.042-.182-.068-.06-.026-.119-.048-.178-.076a3.94 3.94 0 0 1-1.134-.794 1.133 1.133 0 0 1 0-1.597 1.162 1.162 0 0 1 1.593 0 1.7 1.7 0 0 0 2.402 0l.93-.924.022-.026 2.658-2.654a1.7 1.7 0 1 0-2.406-2.405l-2.133 2.13a.283.283 0 0 1-.309.062 4.763 4.763 0 0 0-1.81-.354h-.105a.283.283 0 0 1-.207-.484l2.972-2.97a3.967 3.967 0 0 1 5.61 5.61z"/></g></g></svg>