<svg xmlns="http://www.w3.org/2000/svg" width="15" height="16" viewBox="0 0 15 16"><g><g><path fill="#fff" d="M15 13.14A2.855 2.855 0 0 1 12.155 16a2.857 2.857 0 0 1-2.68-3.814L5.109 9.73a2.84 2.84 0 0 1-2.26 1.126A2.858 2.858 0 0 1 0 7.997a2.857 2.857 0 0 1 2.845-2.861c.918 0 1.738.439 2.256 1.123l4.365-2.452A2.855 2.855 0 0 1 12.149 0a2.855 2.855 0 0 1 2.844 2.86 2.857 2.857 0 0 1-2.844 2.86 2.835 2.835 0 0 1-2.257-1.122L5.524 7.05a2.886 2.886 0 0 1 .003 1.89L9.9 11.395a2.842 2.842 0 0 1 2.253-1.116A2.858 2.858 0 0 1 15 13.139zM10.2 2.863a1.96 1.96 0 0 0 1.952 1.963 1.96 1.96 0 0 0 1.953-1.963A1.96 1.96 0 0 0 12.152.9c-1.074 0-1.953.88-1.953 1.964zM4.8 7.997a1.96 1.96 0 0 0-1.952-1.964A1.96 1.96 0 0 0 .895 7.997 1.96 1.96 0 0 0 2.848 9.96c1.074 0 1.953-.88 1.953-1.963zm9.305 5.14a1.96 1.96 0 0 0-1.953-1.964 1.96 1.96 0 0 0-1.953 1.963 1.96 1.96 0 0 0 1.953 1.963 1.96 1.96 0 0 0 1.953-1.963z"/></g></g></svg>