<svg xmlns="http://www.w3.org/2000/svg" width="26" height="26" viewBox="0 0 26 26"><g><g><path d="M.775 9.81C.158 8.158-.08 6.789.023 5.5a4.134 4.134 0 0 1 1.239-2.65L3.284.835C3.863.285 4.523 0 5.21 0c.693 0 1.347.286 1.904.83.368.339.74.716 1.098 1.083.184.188.362.371.551.56l1.612 1.605c.59.582.898 1.256.898 1.94 0 .684-.314 1.357-.898 1.94-.168.166-.335.333-.498.5-.46.469-.935.948-1.444 1.406.363.836.882 1.654 1.655 2.63 1.53 1.869 3.132 3.324 4.895 4.439.178.113.378.215.594.323.173.086.357.178.536.28l1.936-1.928c.568-.566 1.233-.868 1.925-.868s1.352.302 1.904.873l3.25 3.238c1.163 1.158 1.163 2.677.01 3.873-.248.259-.508.512-.762.755-.373.36-.73.7-1.044 1.077-.005.01-.016.022-.021.027C22.428 25.537 21.347 26 20 26c-.124 0-.243-.005-.368-.01-2.006-.13-3.807-.884-5.153-1.52-3.537-1.708-6.636-4.122-9.21-7.187C3.149 14.746 1.72 12.37.775 9.811zm1.25-.441c.897 2.413 2.254 4.665 4.271 7.084 2.45 2.92 5.403 5.22 8.767 6.842 1.238.588 2.887 1.277 4.661 1.39.092.006.19.011.282.011.957 0 1.698-.312 2.32-.98.357-.426.751-.803 1.13-1.17.254-.242.492-.474.72-.716.659-.684.664-1.385.015-2.031l-3.26-3.243c-.212-.227-.547-.48-.958-.48-.335 0-.676.167-.99.48l-2.022 2.015c-.092.091-.373.366-.806.366-.173 0-.346-.043-.525-.135-.021-.01-.037-.021-.059-.032a6.664 6.664 0 0 0-.595-.323c-.232-.119-.481-.237-.714-.388-1.882-1.19-3.59-2.737-5.213-4.73-.903-1.132-1.482-2.08-1.898-3.077l-.016-.043c-.109-.323-.179-.749.27-1.196l.027-.027c.52-.458.99-.937 1.493-1.444.167-.167.335-.339.503-.506.335-.334.508-.673.508-1.007 0-.334-.173-.674-.508-1.008L7.816 3.416c-.19-.194-.379-.383-.562-.571-.368-.372-.709-.722-1.071-1.056-.308-.313-.644-.47-.974-.47-.335 0-.681.157-.995.459L2.203 3.782a2.845 2.845 0 0 0-.86 1.832c-.087 1.083.124 2.273.681 3.755z"/></g></g></svg>