<svg xmlns="http://www.w3.org/2000/svg" width="31" height="18" viewBox="0 0 31 18"><g><g><path fill="#94999d" d="M15.087 17.458c-3.393 0-7.045-1.356-10.561-3.921C1.897 11.619.275 9.719.207 9.639a.886.886 0 0 1 0-1.142c.068-.08 1.69-1.98 4.319-3.898C8.042 2.034 11.694.678 15.087.678s7.046 1.356 10.562 3.921c2.628 1.918 4.25 3.818 4.318 3.898a.886.886 0 0 1 0 1.142c-.068.08-1.69 1.98-4.318 3.898-3.516 2.565-7.168 3.92-10.562 3.92zM2.022 9.068a27.098 27.098 0 0 0 3.53 3.074c2.24 1.63 5.714 3.572 9.535 3.572 3.821 0 7.295-1.942 9.536-3.572a27.097 27.097 0 0 0 3.529-3.074 27.098 27.098 0 0 0-3.529-3.074c-2.241-1.63-5.715-3.572-9.536-3.572-3.821 0-7.295 1.942-9.536 3.572a27.103 27.103 0 0 0-3.529 3.074zm13.065 5.406c-2.917 0-5.29-2.425-5.29-5.406 0-2.98 2.373-5.406 5.29-5.406 1.283 0 2.52.476 3.485 1.339.354.317.39.868.08 1.23a.84.84 0 0 1-1.205.081 3.536 3.536 0 0 0-2.36-.906c-1.976 0-3.584 1.643-3.584 3.662 0 2.02 1.608 3.662 3.584 3.662s3.584-1.643 3.584-3.662c0-.481.382-.872.853-.872.472 0 .854.39.854.872 0 2.98-2.374 5.406-5.29 5.406zm0-3.662c-.94 0-1.707-.782-1.707-1.744 0-.961.766-1.744 1.707-1.744.941 0 1.707.783 1.707 1.744 0 .962-.766 1.744-1.707 1.744z"/></g></g></svg>