<svg xmlns="http://www.w3.org/2000/svg" width="71" height="20" viewBox="0 0 71 20"><g><g><path fill="#b5bbc0" d="M25.244 5.153h1.64v8.327h4.408v1.454h-6.048zm8.602 8.327h4.838v1.454h-6.479V5.153h6.48v1.439h-4.84zm.43-4.164h3.719v1.44h-3.718zm6.807 5.618h-1.64V5.153h1.64zm.431-5.045l3.818-4.736h1.971L43.43 9.959l4.01 4.975h-2.108l-3.818-4.737zm13.01 1.565v1.342c0 1.285-.856 2.138-2.096 2.138h-3.101c-1.255 0-2.11-.853-2.11-2.138v-.866h1.64v.782c0 .489.29.768.759.768h2.508c.47 0 .759-.28.759-.768v-1.188c0-.475-.29-.768-.759-.768h-2.811c-1.24 0-2.096-.852-2.096-2.138V7.29c0-1.285.855-2.137 2.096-2.137h3.101c1.254 0 2.11.852 2.11 2.137v.867h-1.641v-.782c0-.49-.29-.783-.759-.783h-2.508c-.469 0-.758.293-.758.783v1.159c0 .488.29.782.758.782h2.812c1.24 0 2.095.853 2.095 2.138zm5.403-.112v3.592h-1.64v-3.592l-3.53-6.19h1.958l2.426 4.514zm-.355-2.113l2.023-4.076h1.847l-3.084 5.752zm11.425 2.225v1.342c0 1.285-.856 2.138-2.096 2.138H65.8c-1.255 0-2.11-.853-2.11-2.138v-.866h1.641v.782c0 .489.29.768.758.768h2.509c.469 0 .758-.28.758-.768v-1.188c0-.475-.29-.768-.758-.768h-2.812c-1.24 0-2.095-.852-2.095-2.138V7.29c0-1.285.854-2.137 2.095-2.137h3.101c1.254 0 2.11.852 2.11 2.137v.867h-1.641v-.782c0-.49-.29-.783-.758-.783h-2.509c-.469 0-.758.293-.758.783v1.159c0 .488.29.782.758.782h2.812c1.24 0 2.096.853 2.096 2.138zM10.955 8.93c-.42-.418-.641-.96-.641-1.538 0-.578.221-1.12.624-1.528a2.102 2.102 0 0 1 1.508-.634c.567 0 1.1.223 1.503.628l5.168 5.24c.392.396.614.939.614 1.517 0 .577-.222 1.12-.625 1.529l-5.14 5.204a2.103 2.103 0 0 1-3.028.018 2.186 2.186 0 0 1 0-3.057l3.116-3.16a.756.756 0 0 0 .22-.535.756.756 0 0 0-.22-.535zm5.32-.104c.005.02.006.04.01.058.014.072.023.145.032.218.004.037.01.074.012.111.007.1.01.2.006.302v.035c-.098 2.428-2.969 4.93-3.09 5.035l-2.016 2.04a1.747 1.747 0 0 0 .01 2.437c.645.653 1.77.653 2.414 0l5.16-5.23c.315-.32.492-.755.492-1.217 0-.462-.177-.897-.5-1.224zm-1.92 2.95c.168.167.279.38.323.61l.004-.006.035-.05a9.62 9.62 0 0 0 .21-.297l.082-.127c.052-.079.103-.159.152-.24.03-.049.058-.1.086-.149a6.717 6.717 0 0 0 .316-.624l.07-.163a4.928 4.928 0 0 0 .202-.664c.01-.045.022-.091.03-.137.022-.128.038-.256.043-.384l.002-.015v-.018a2.495 2.495 0 0 0-.03-.478c0-.009-.003-.017-.005-.025a2.025 2.025 0 0 0-.046-.211l-.005-.019c-.021-.07-.044-.14-.07-.208-.005-.015-.014-.028-.02-.043a2.194 2.194 0 0 0-.08-.177c-.009-.015-.02-.03-.028-.047-.031-.055-.062-.11-.097-.163-.013-.02-.029-.037-.042-.057-.034-.048-.068-.096-.107-.144l-.064-.072c-.036-.04-.07-.082-.11-.121l-1.564-1.59a1.685 1.685 0 0 0-2.403.011c-.322.327-.5.761-.5 1.224 0 .462.178.896.5 1.223zM8.79 11.07c.419.419.64.962.64 1.54 0 .577-.221 1.119-.624 1.527a2.102 2.102 0 0 1-1.508.634c-.567 0-1.1-.223-1.503-.628L.627 8.904a2.148 2.148 0 0 1-.615-1.516c0-.579.222-1.121.625-1.53L5.777.654A2.101 2.101 0 0 1 8.805.636a2.186 2.186 0 0 1 0 3.057L5.69 6.852a.758.758 0 0 0-.22.536c0 .202.078.392.22.536zm-5.321.105c-.005-.019-.005-.04-.01-.06a2.697 2.697 0 0 1-.032-.217c-.004-.036-.009-.073-.011-.11-.008-.1-.01-.2-.007-.303v-.034c.098-2.428 2.969-4.93 3.091-5.036l2.015-2.038A1.747 1.747 0 0 0 8.504.94C7.86.287 6.734.287 6.09.94L.931 6.17c-.315.32-.493.754-.493 1.217 0 .461.178.896.5 1.223zm1.92-2.95a1.183 1.183 0 0 1-.322-.61l-.005.006-.035.05a8.113 8.113 0 0 0-.444.664c-.03.049-.057.099-.086.149a6.987 6.987 0 0 0-.208.391 4.823 4.823 0 0 0-.177.396 5.314 5.314 0 0 0-.138.4 3.497 3.497 0 0 0-.064.263c-.01.046-.023.092-.031.138a3.085 3.085 0 0 0-.043.384l-.002.016v.016a2.489 2.489 0 0 0 .081.715c.001.007.004.012.006.018.02.071.043.141.07.21l.019.041c.025.06.05.119.08.177.009.017.02.032.029.048.03.055.061.11.096.163.013.02.029.037.042.056.034.049.068.098.107.145.02.024.043.048.065.071.035.042.07.082.109.122l1.564 1.59c.321.32.745.496 1.196.496.456 0 .885-.18 1.207-.507.323-.326.5-.761.5-1.224 0-.462-.177-.896-.5-1.223z"/></g></g></svg>