<svg xmlns="http://www.w3.org/2000/svg" width="19" height="20" viewBox="0 0 19 20"><g><g><path fill="#d71921" d="M19 10.068c0 5.089-4.136 9.23-9.22 9.23-5.085 0-9.221-4.141-9.221-9.23S4.695.838 9.779.838C14.864.839 19 4.98 19 10.069zm-1.512 0c0-4.255-3.458-7.716-7.709-7.716-4.25 0-7.709 3.461-7.709 7.716 0 4.255 3.459 7.716 7.71 7.716 4.25 0 7.708-3.461 7.708-7.716zm-4.032 2.61a.757.757 0 0 1-1.069 1.07l-2.608-2.61-2.607 2.61a.754.754 0 0 1-1.07 0 .757.757 0 0 1 0-1.07l2.608-2.61-2.607-2.61a.757.757 0 0 1 1.069-1.07l2.607 2.61 2.608-2.61a.755.755 0 1 1 1.069 1.07l-2.608 2.61z"/></g></g></svg>