<svg xmlns="http://www.w3.org/2000/svg" width="13" height="13" viewBox="0 0 13 13"><g><g><path fill="#94999d" d="M13 12a.96.96 0 0 1-.297.703A.96.96 0 0 1 12 13a.928.928 0 0 1-.703-.297l-2.68-2.672a5.35 5.35 0 0 1-3.117.97 5.406 5.406 0 0 1-2.137-.434 5.5 5.5 0 0 1-1.758-1.172A5.5 5.5 0 0 1 .433 7.637 5.406 5.406 0 0 1 0 5.5c0-.745.145-1.457.434-2.137.29-.68.68-1.266 1.172-1.758A5.499 5.499 0 0 1 3.363.433 5.403 5.403 0 0 1 5.5 0c.745 0 1.457.144 2.137.433.68.29 1.266.68 1.758 1.172a5.497 5.497 0 0 1 1.172 1.758c.289.68.434 1.392.434 2.137a5.351 5.351 0 0 1-.97 3.117l2.68 2.68c.193.193.29.427.29.703zM9 5.5c0-.964-.342-1.788-1.027-2.473A3.372 3.372 0 0 0 5.5 2c-.964 0-1.788.342-2.473 1.027A3.372 3.372 0 0 0 2 5.5c0 .964.342 1.788 1.027 2.473A3.372 3.372 0 0 0 5.5 9c.964 0 1.788-.342 2.473-1.027A3.372 3.372 0 0 0 9 5.5z"/></g></g></svg>