<svg xmlns="http://www.w3.org/2000/svg" width="38" height="38" viewBox="0 0 38 38"><g><g><path fill="#797f84" d="M31.777 33.049l.019.016-.633.528c-.063.053-.132.098-.196.15-.29.235-.587.46-.89.679-.127.09-.252.183-.38.27a19.023 19.023 0 0 1-1.395.866c-.409.23-.825.446-1.252.646-.052.025-.105.048-.158.072a18.826 18.826 0 0 1-4.53 1.42l-.13.023c-.495.085-.996.152-1.504.199l-.193.014A19.07 19.07 0 0 1 19 38c-.522 0-1.038-.027-1.548-.07-.063-.005-.125-.008-.187-.014a18.923 18.923 0 0 1-1.518-.202l-.127-.022a18.827 18.827 0 0 1-4.595-1.455l-.098-.044a18.95 18.95 0 0 1-1.3-.677l-.254-.146a19.422 19.422 0 0 1-2.484-1.744c-.04-.033-.084-.06-.124-.094l-.616-.52.018-.016C2.379 29.521 0 24.533 0 19 0 8.524 8.524 0 19 0s19 8.524 19 19c0 5.562-2.402 10.572-6.223 14.049zm-24.54-.947c.173-.123.346-.234.52-.329l5.463-2.98c.495-.27.803-.788.803-1.352v-2c-.426-.562-1.578-2.222-2.137-4.414a2.513 2.513 0 0 1-.926-1.949v-2.45c0-.598.22-1.18.613-1.636v-3.224c-.036-.358-.163-2.383 1.3-4.052C14.148 6.263 16.209 5.527 19 5.527s4.853.736 6.126 2.19c1.464 1.669 1.337 3.692 1.301 4.051v3.225c.393.456.613 1.037.613 1.636v2.45c0 .984-.565 1.856-1.44 2.272a14.08 14.08 0 0 1-1.808 3.54c-.148.208-.29.397-.426.564v2.043c0 .587.326 1.115.85 1.377l5.85 2.925c.21.105.415.23.618.37 3.637-3.229 5.934-7.935 5.934-13.17 0-9.715-7.903-17.618-17.618-17.618S1.382 9.285 1.382 19c0 5.197 2.263 9.874 5.855 13.102z"/></g></g></svg>